<?xml version="1.0" encoding="UTF-8" standalone="no"?>
<!DOCTYPE svg PUBLIC "-//W3C//DTD SVG 1.1//EN"
 "http://www.w3.org/Graphics/SVG/1.1/DTD/svg11.dtd">
<!-- Generated by graphviz version 2.38.0 (20140413.2041)
 -->
<!-- Title: G Pages: 1 -->
<svg width="310pt" height="294pt"
 viewBox="0.00 0.00 310.00 294.00" xmlns="http://www.w3.org/2000/svg" xmlns:xlink="http://www.w3.org/1999/xlink">
<g id="graph0" class="graph" transform="scale(1 1) rotate(0) translate(4 290)">
<title>G</title>
<polygon fill="white" stroke="none" points="-4,4 -4,-290 306,-290 306,4 -4,4"/>
<g id="clust1" class="cluster"><title>cluster_side</title>
<polygon fill="none" stroke="black" points="143,-120 143,-195 273,-195 273,-120 143,-120"/>
<text text-anchor="start" x="190.5" y="-180.8" font-family="serif" font-weight="bold" font-size="14.00">Side</text>
</g>
<g id="clust2" class="cluster"><title>cluster_line</title>
<polygon fill="none" stroke="black" points="8,-203 8,-278 294,-278 294,-203 8,-203"/>
<text text-anchor="start" x="133.5" y="-263.8" font-family="serif" font-weight="bold" font-size="14.00">Line</text>
</g>
<!-- vertex -->
<g id="node1" class="node"><title>vertex</title>
<polygon fill="none" stroke="black" points="38,-147 38,-168 97,-168 97,-147 38,-147"/>
<text text-anchor="start" x="42" y="-154.8" font-family="serif" font-weight="bold" font-size="14.00">Vertex</text>
<polygon fill="none" stroke="black" points="38,-124 38,-145 66,-145 66,-124 38,-124"/>
<text text-anchor="start" x="47.5" y="-130.8" font-family="serif" font-size="14.00">x</text>
<polygon fill="none" stroke="black" points="68,-124 68,-145 97,-145 97,-124 68,-124"/>
<text text-anchor="start" x="78" y="-130.8" font-family="serif" font-size="14.00">y</text>
<polygon fill="none" stroke="black" points="34.5,-121 34.5,-171 99.5,-171 99.5,-121 34.5,-121"/>
</g>
<!-- sector -->
<g id="node2" class="node"><title>sector</title>
<polygon fill="none" stroke="black" points="130,-52.5 130,-73.5 287,-73.5 287,-52.5 130,-52.5"/>
<text text-anchor="start" x="182.5" y="-60.3" font-family="serif" font-weight="bold" font-size="14.00">Sector</text>
<polygon fill="none" stroke="black" points="130,-29.5 130,-50.5 287,-50.5 287,-29.5 130,-29.5"/>
<text text-anchor="start" x="133" y="-36.3" font-family="serif" font-size="14.00">Floor, ceiling heights</text>
<polygon fill="none" stroke="black" points="130,-6.5 130,-27.5 287,-27.5 287,-6.5 130,-6.5"/>
<text text-anchor="start" x="161.5" y="-13.3" font-family="serif" font-size="14.00">Flat textures</text>
<polygon fill="none" stroke="black" points="126.5,-4 126.5,-77 289.5,-77 289.5,-4 126.5,-4"/>
</g>
<!-- si_sector -->
<g id="node3" class="node"><title>si_sector</title>
<polygon fill="none" stroke="black" points="265,-164 151,-164 151,-128 265,-128 265,-164"/>
<text text-anchor="middle" x="208" y="-142.3" font-family="serif" font-size="14.00">Facing sector</text>
</g>
<!-- si_sector&#45;&gt;sector -->
<g id="edge1" class="edge"><title>si_sector&#45;&gt;sector</title>
<path fill="none" stroke="black" d="M208,-127.909C208,-117.942 208,-104.801 208,-91.7828"/>
<polygon fill="black" stroke="black" points="211.5,-91.4325 208,-81.4325 204.5,-91.4325 211.5,-91.4325"/>
</g>
<!-- l_start -->
<g id="node4" class="node"><title>l_start</title>
<polygon fill="none" stroke="black" points="142,-247 88,-247 88,-211 142,-211 142,-247"/>
<text text-anchor="middle" x="115" y="-225.3" font-family="serif" font-size="14.00">start</text>
</g>
<!-- l_start&#45;&gt;vertex -->
<g id="edge2" class="edge"><title>l_start&#45;&gt;vertex</title>
<path fill="none" stroke="black" d="M104.82,-210.822C100.191,-203.009 94.5201,-193.44 88.9926,-184.112"/>
<polygon fill="black" stroke="black" points="91.8845,-182.127 83.7754,-175.309 85.8625,-185.696 91.8845,-182.127"/>
</g>
<!-- l_end -->
<g id="node5" class="node"><title>l_end</title>
<polygon fill="none" stroke="black" points="70,-247 16,-247 16,-211 70,-211 70,-247"/>
<text text-anchor="middle" x="43" y="-225.3" font-family="serif" font-size="14.00">end</text>
</g>
<!-- l_end&#45;&gt;vertex -->
<g id="edge3" class="edge"><title>l_end&#45;&gt;vertex</title>
<path fill="none" stroke="black" d="M48.0898,-210.822C50.333,-203.251 53.065,-194.03 55.7471,-184.979"/>
<polygon fill="black" stroke="black" points="59.1271,-185.891 58.6123,-175.309 52.4155,-183.902 59.1271,-185.891"/>
</g>
<!-- l_front -->
<g id="node6" class="node"><title>l_front</title>
<polygon fill="none" stroke="black" points="286,-247 232,-247 232,-211 286,-211 286,-247"/>
<text text-anchor="middle" x="259" y="-225.3" font-family="serif" font-size="14.00">front</text>
</g>
<!-- l_front&#45;&gt;si_sector -->
<g id="edge4" class="edge"><title>l_front&#45;&gt;si_sector</title>
<path fill="none" stroke="black" d="M248.184,-210.822C246.708,-208.478 245.133,-205.976 243.492,-203.37"/>
<polygon fill="black" stroke="black" points="246.359,-201.355 238.069,-194.757 240.436,-205.084 246.359,-201.355"/>
</g>
<!-- l_back -->
<g id="node7" class="node"><title>l_back</title>
<polygon fill="none" stroke="black" points="214,-247 160,-247 160,-211 214,-211 214,-247"/>
<text text-anchor="middle" x="187" y="-225.3" font-family="serif" font-size="14.00">back</text>
</g>
<!-- l_back&#45;&gt;si_sector -->
<g id="edge5" class="edge"><title>l_back&#45;&gt;si_sector</title>
<path fill="none" stroke="black" d="M191.454,-210.822C191.966,-208.845 192.508,-206.756 193.07,-204.586"/>
<polygon fill="black" stroke="black" points="196.521,-205.22 195.643,-194.662 189.745,-203.464 196.521,-205.22"/>
</g>
</g>
</svg>
