<svg xmlns='http://www.w3.org/2000/svg' class="pikchr" viewBox="0 0 433.415 258.858">
<circle cx="66.4597" cy="192.399" r="2.16" style="fill:rgb(0,0,0);stroke-width:2.16;stroke:rgb(0,0,0);" />
<text x="66.4597" y="182.319" text-anchor="middle" fill="rgb(0,0,0)" dominant-baseline="central"></text>
<text x="66.4597" y="202.479" text-anchor="start" fill="rgb(0,0,0)" dominant-baseline="central">(i, j)</text>
<circle cx="349.924" cy="192.399" r="2.16" style="fill:rgb(0,0,0);stroke-width:2.16;stroke:rgb(0,0,0);" />
<text x="349.924" y="182.319" text-anchor="middle" fill="rgb(0,0,0)" dominant-baseline="central"></text>
<text x="349.924" y="202.479" text-anchor="start" fill="rgb(0,0,0)" dominant-baseline="central">(i+1, j)</text>
<circle cx="349.924" cy="22.32" r="2.16" style="fill:rgb(0,0,0);stroke-width:2.16;stroke:rgb(0,0,0);" />
<text x="349.924" y="12.24" text-anchor="start" fill="rgb(0,0,0)" dominant-baseline="central">(i+1, j+1)</text>
<text x="349.924" y="32.4" text-anchor="middle" fill="rgb(0,0,0)" dominant-baseline="central"></text>
<circle cx="66.4597" cy="22.32" r="2.16" style="fill:rgb(0,0,0);stroke-width:2.16;stroke:rgb(0,0,0);" />
<text x="66.4597" y="12.24" text-anchor="start" fill="rgb(0,0,0)" dominant-baseline="central">(i, j+1)</text>
<text x="66.4597" y="32.4" text-anchor="middle" fill="rgb(0,0,0)" dominant-baseline="central"></text>
<polygon points="293.231,234.918 281.711,239.238 281.711,230.598" style="fill:rgb(0,0,0)"/>
<path d="M66.4597,234.918L287.471,234.918"  style="fill:none;stroke-width:2.16;stroke:rgb(0,0,0);" />
<text x="179.846" y="223.218" text-anchor="middle" fill="rgb(0,0,0)" dominant-baseline="central"></text>
<text x="179.846" y="246.618" text-anchor="middle" fill="rgb(0,0,0)" dominant-baseline="central">x axis</text>
<polygon points="23.94,50.6665 28.26,62.1865 19.62,62.1865" style="fill:rgb(0,0,0)"/>
<path d="M23.94,192.399L23.94,56.4265"  style="fill:none;stroke-width:2.16;stroke:rgb(0,0,0);" />
<text x="23.94" y="109.833" text-anchor="middle" fill="rgb(0,0,0)" transform="rotate(-90 23.94,121.533)" dominant-baseline="central">y axis</text>
<text x="23.94" y="133.233" text-anchor="middle" fill="rgb(0,0,0)" dominant-baseline="central"></text>
<polygon points="66.4597,22.32 69.3541,30.0384 63.5653,30.0384" style="fill:rgb(0,0,0)"/>
<path d="M66.4597,192.399L66.4597,26.1792"  style="fill:none;stroke-width:1.4472;stroke:rgb(0,0,0);" />
<text x="66.4597" y="96.194" text-anchor="middle" fill="rgb(0,0,0)" dominant-baseline="central"></text>
<text x="66.4597" y="118.525" text-anchor="middle" fill="rgb(0,0,0)" transform="rotate(-90 66.4597,107.359)" dominant-baseline="central">vertical</text>
<polygon points="349.924,192.399 342.206,195.293 342.206,189.504" style="fill:rgb(0,0,0)"/>
<path d="M66.4597,192.399L346.065,192.399"  style="fill:none;stroke-width:1.4472;stroke:rgb(0,0,0);" />
<text x="208.192" y="181.233" text-anchor="middle" fill="rgb(0,0,0)" transform="rotate(-0 208.192,192.399)" dominant-baseline="central">horizontal</text>
<text x="208.192" y="203.564" text-anchor="middle" fill="rgb(0,0,0)" dominant-baseline="central"></text>
<polygon points="349.924,22.32 344.795,28.773 341.817,23.8092" style="fill:rgb(0,0,0)"/>
<path d="M66.4597,192.399L346.615,24.3055"  style="fill:none;stroke-width:1.4472;stroke:rgb(0,0,0);" />
<text x="208.192" y="96.194" text-anchor="middle" fill="rgb(0,0,0)" transform="rotate(-30.96375653 208.192,107.359)" dominant-baseline="central">diagonal</text>
<text x="208.192" y="118.525" text-anchor="middle" fill="rgb(0,0,0)" dominant-baseline="central"></text>
<path d="M349.924,22.32L66.4597,22.32"  style="fill:none;stroke-width:1.4472;stroke:rgb(0,0,0);stroke-dasharray:7.2,7.2;" />
<path d="M349.924,22.32L349.924,192.399"  style="fill:none;stroke-width:1.4472;stroke:rgb(0,0,0);stroke-dasharray:7.2,7.2;" />
<text x="255.436" y="135.706" text-anchor="middle" fill="rgb(0,0,0)" font-size="125%" dominant-baseline="central">T(i,j,1)</text>
<text x="160.948" y="79.0129" text-anchor="middle" fill="rgb(0,0,0)" font-size="125%" dominant-baseline="central">T(i,j,2)</text>
</svg>

